<svg width="20" height="20" viewBox="0 0 20 20" fill="none" xmlns="http://www.w3.org/2000/svg">
<path fill-rule="evenodd" clip-rule="evenodd" d="M2.86331 4.32003C2.5 5.03307 2.5 5.96649 2.5 7.83333V12.1667C2.5 14.0335 2.5 14.9669 2.86331 15.68C3.18289 16.3072 3.69282 16.8171 4.32003 17.1367C5.03307 17.5 5.96649 17.5 7.83333 17.5H12.1667C14.0335 17.5 14.9669 17.5 15.68 17.1367C16.3072 16.8171 16.8171 16.3072 17.1367 15.68C17.5 14.9669 17.5 14.0335 17.5 12.1667V7.83333C17.5 5.96649 17.5 5.03307 17.1367 4.32003C16.8171 3.69282 16.3072 3.18289 15.68 2.86331C14.9669 2.5 14.0335 2.5 12.1667 2.5H7.83333C5.96649 2.5 5.03307 2.5 4.32003 2.86331C3.69282 3.18289 3.18289 3.69282 2.86331 4.32003ZM10.5892 11.4226C10.2638 11.748 9.73617 11.748 9.41073 11.4226L6.49407 8.50592L7.67258 7.32741L9.16665 8.82149V5H10.8333V8.82149L12.3274 7.32741L13.5059 8.50592L10.5892 11.4226ZM5.83333 13.3333H14.1667V15H5.83333V13.3333Z" fill="#009EE4"/>
</svg>
