<svg width="32" height="40" viewBox="0 0 32 40" fill="none" xmlns="http://www.w3.org/2000/svg">
<path d="M3.16477 27.988C1.32303 29.045 8.01626e-07 28.1642 7.26706e-07 26.5974C6.46951e-07 24.9295 4.07645e-07 19.9249 4.07645e-07 19.9249C4.07645e-07 19.9249 1.68339e-07 14.9203 8.85835e-08 13.2524C1.36639e-08 11.6857 1.32221 10.8048 3.16477 11.8618C6.03325 13.5077 14.6379 18.447 14.6379 18.447C15.782 19.1036 15.782 20.7454 14.6379 21.402C14.6379 21.4028 6.03325 26.3421 3.16477 27.988Z" fill="#00C1FF"/>
<path d="M12.6364 27.988C10.7946 29.045 9.4716 28.1642 9.4716 26.5974C9.4716 24.9295 9.4716 19.9249 9.4716 19.9249C9.4716 19.9249 9.4716 14.9203 9.4716 13.2524C9.4716 11.6857 10.7938 10.8048 12.6364 11.8618C15.4417 13.4718 23.8575 18.3027 23.8575 18.3027C25.1141 19.0237 25.1141 20.8261 23.8575 21.5471C23.8567 21.5471 15.4417 26.378 12.6364 27.988Z" fill="#6FE4FF"/>
<mask id="mask0_165_403" style="mask-type:alpha" maskUnits="userSpaceOnUse" x="9" y="11" width="16" height="18">
<path d="M12.6364 27.988C10.7946 29.045 9.4716 28.1642 9.4716 26.5974C9.4716 24.9295 9.4716 19.9249 9.4716 19.9249C9.4716 19.9249 9.4716 14.9203 9.4716 13.2524C9.4716 11.6857 10.7938 10.8048 12.6364 11.8618C15.4417 13.4718 23.8575 18.3027 23.8575 18.3027C25.1141 19.0237 25.1141 20.8261 23.8575 21.5471C23.8567 21.5471 15.4417 26.378 12.6364 27.988Z" fill="#6FE4FF"/>
</mask>
<g mask="url(#mask0_165_403)">
<path d="M3.16477 27.988C1.32303 29.045 8.01626e-07 28.1642 7.26706e-07 26.5974C6.46951e-07 24.9295 4.07645e-07 19.9249 4.07645e-07 19.9249C4.07645e-07 19.9249 1.68339e-07 14.9203 8.85835e-08 13.2524C1.36639e-08 11.6857 1.32221 10.8048 3.16477 11.8618C6.03325 13.5077 14.6379 18.447 14.6379 18.447C15.782 19.1036 15.782 20.7454 14.6379 21.402C14.6379 21.402 6.03325 26.3421 3.16477 27.988Z" fill="#009EE4"/>
</g>
</svg>
