<svg width="118" height="40" viewBox="0 0 118 40" fill="none" xmlns="http://www.w3.org/2000/svg">
<g clip-path="url(#clip0_113_3178)">
<path d="M31.2455 23.0073L31.5733 22.2632C31.7921 21.7602 32.186 21.6289 32.6889 22.0006C33.6517 22.7009 35.2264 23.2262 37.3272 23.2262C39.1215 23.2262 39.887 22.767 39.887 22.2194C39.887 21.6066 39.2528 21.4315 38.2025 21.3002L35.8177 20.9947C32.9515 20.623 31.5072 19.594 31.5072 17.8002C31.5072 15.8751 33.0828 14.3431 36.7359 14.3431C38.7706 14.3431 40.0835 14.6495 40.9365 14.9773C41.8771 15.349 42.0084 15.6554 42.0084 16.4218V17.4062C42.0084 18.019 41.7895 18.2379 41.1768 18.2379H40.4989C39.8862 18.2379 39.6673 18.019 39.6673 17.4062V17.0775C39.2735 16.9462 38.2892 16.7497 37.1298 16.7497C35.1174 16.7497 34.1323 17.1213 34.1323 17.7341C34.1323 18.1933 34.7227 18.4559 35.7946 18.6095L38.1356 18.9159C41.0018 19.2876 42.5112 20.1415 42.5112 22.198C42.5112 24.2982 40.5204 25.6336 36.9762 25.6336C34.3726 25.6336 32.2727 24.8019 31.4412 24.0364C31.1357 23.7514 31.0919 23.379 31.2455 23.0073Z" fill="black"/>
<path d="M57.066 25.4577H55.8629C55.2725 25.4577 55.0751 25.3701 54.791 24.9324L52.5161 21.5843C52.1883 21.1251 51.9472 21.0153 51.2692 21.0153H48.9943V24.626C48.9943 25.2388 48.7754 25.4577 48.1627 25.4577H47.2874C46.6747 25.4577 46.4559 25.2388 46.4559 24.626V13.7517H45.6466C45.0339 13.7517 44.8151 13.5329 44.8151 12.9201V12.1983C44.8151 11.5855 45.0339 11.3666 45.6466 11.3666H48.1627C48.7754 11.3666 48.9943 11.5855 48.9943 12.1983V18.5658H51.0289C51.7069 18.5658 51.948 18.4567 52.2758 17.9967L54.1792 15.0649C54.4855 14.6057 54.6821 14.5181 55.2733 14.5181H56.4764C57.1329 14.5181 57.2642 15.0434 56.8918 15.5901L54.7696 18.8069C54.5508 19.1133 54.2882 19.4412 54.0256 19.7038C54.2882 19.9227 54.6598 20.2943 54.8133 20.5132L57.4822 24.408C57.8538 24.9333 57.7225 25.4577 57.066 25.4577Z" fill="black"/>
<path d="M61.208 27.4712V26.7494C61.208 26.1366 61.4268 25.9177 62.0395 25.9177H63.0899C63.7241 25.9177 64.0304 25.7864 64.2715 25.2834L64.4028 24.9993L59.393 15.5249C59.0866 14.9559 59.3269 14.5181 59.9834 14.5181H61.1213C61.7117 14.5181 61.9743 14.6272 62.1931 15.0434L64.293 19.3536C64.7744 20.3381 65.3211 21.4761 65.7587 22.4606C66.1964 21.4976 66.6993 20.4042 67.1807 19.4412L69.3243 15.0434C69.5209 14.628 69.8058 14.5181 70.3962 14.5181H71.5341C72.1905 14.5181 72.4308 14.9559 72.1245 15.5249L66.4144 26.3562C65.7579 27.6033 64.9924 28.3037 63.2856 28.3037H62.0387C61.4268 28.3028 61.208 28.084 61.208 27.4712Z" fill="black"/>
<path d="M86.1062 19.9441V20.2068C86.1062 20.8196 85.8873 21.0384 85.2746 21.0384H76.3044C76.6108 22.198 77.7702 23.3137 80.2425 23.3137C82.4522 23.3137 83.4588 22.5919 83.9179 22.2632C84.4208 21.8916 84.7709 22.022 85.0335 22.5258L85.4051 23.2476C85.6016 23.6193 85.4926 23.9042 85.164 24.1883C84.6825 24.6037 83.0418 25.6328 80.2416 25.6328C76.4787 25.6328 73.8536 23.4227 73.8536 19.9656C73.8536 16.5738 76.3697 14.3422 79.979 14.3422C83.5901 14.3422 86.1062 16.5523 86.1062 19.9441ZM76.3044 18.9159H83.6776C83.3936 17.7779 82.2334 16.7059 79.9799 16.7059C77.7264 16.7059 76.5885 17.7779 76.3044 18.9159Z" fill="black"/>
<path d="M102.06 19.5717V24.626C102.06 25.2388 101.841 25.4577 101.228 25.4577H100.353C99.7402 25.4577 99.5214 25.2388 99.5214 24.626V19.6369C99.5214 17.8646 98.471 16.9016 96.6989 16.9016C95.3208 16.9016 93.68 17.7548 92.8699 18.6517V24.6252C92.8699 25.238 92.6511 25.4569 92.0384 25.4569H91.1631C90.5504 25.4569 90.3315 25.238 90.3315 24.6252V16.9016H89.5223C88.9096 16.9016 88.6908 16.6828 88.6908 16.07V15.3482C88.6908 14.7354 88.9096 14.5165 89.5223 14.5165H91.6445C92.2572 14.5165 92.476 14.7354 92.476 15.3482V15.961C93.6577 14.998 95.2547 14.3414 96.983 14.3414C100.265 14.3422 102.06 16.2896 102.06 19.5717Z" fill="black"/>
<path d="M117.165 15.349V25.5898C117.165 27.8651 114.715 29.3533 111.586 29.3533C108.633 29.3533 107.233 28.4779 106.598 27.8874C106.292 27.6033 106.248 27.2308 106.401 26.8592L106.729 26.1151C106.97 25.5684 107.363 25.4585 107.844 25.8525C108.61 26.4653 109.354 26.9682 111.563 26.9905C113.532 26.9905 114.626 26.2687 114.626 25.3933V24.3428C113.838 24.8457 112.875 25.1744 111.497 25.1744C107.953 25.1744 105.502 23.0957 105.502 19.7699C105.502 16.4441 107.952 14.3431 111.497 14.3431C113.028 14.3431 114.035 14.7808 114.714 15.306C114.889 14.9344 115.239 14.5181 115.676 14.5181H116.333C116.946 14.5173 117.165 14.7362 117.165 15.349ZM114.628 21.5199V18.019C114.015 17.2749 113.118 16.8157 111.499 16.8157C109.552 16.8157 108.13 17.9315 108.13 19.7699C108.13 21.6083 109.552 22.7017 111.499 22.7017C113.096 22.7009 113.994 22.2417 114.628 21.5199Z" fill="black"/>
<path d="M3.16477 27.9881C1.32303 29.0451 8.01626e-07 28.1642 7.26706e-07 26.5975C6.46951e-07 24.9296 4.07645e-07 19.925 4.07645e-07 19.925C4.07645e-07 19.925 1.68339e-07 14.9204 8.85835e-08 13.2525C1.36639e-08 11.6857 1.32221 10.8049 3.16477 11.8619C6.03325 13.5078 14.6379 18.4471 14.6379 18.4471C15.782 19.1037 15.782 20.7455 14.6379 21.4021C14.6379 21.4029 6.03325 26.3422 3.16477 27.9881Z" fill="#00C1FF"/>
<path d="M12.6363 27.9882C10.7946 29.0452 9.47156 28.1643 9.47156 26.5976C9.47156 24.9296 9.47156 19.9251 9.47156 19.9251C9.47156 19.9251 9.47156 14.9205 9.47156 13.2526C9.47156 11.6858 10.7938 10.805 12.6363 11.862C15.4416 13.472 23.8575 18.3028 23.8575 18.3028C25.114 19.0238 25.114 20.8263 23.8575 21.5473C23.8566 21.5473 15.4416 26.3782 12.6363 27.9882Z" fill="#6FE4FF"/>
<mask id="mask0_113_3178" style="mask-type:alpha" maskUnits="userSpaceOnUse" x="9" y="11" width="16" height="18">
<path d="M12.6363 27.9882C10.7946 29.0452 9.47156 28.1643 9.47156 26.5976C9.47156 24.9296 9.47156 19.9251 9.47156 19.9251C9.47156 19.9251 9.47156 14.9205 9.47156 13.2526C9.47156 11.6858 10.7938 10.805 12.6363 11.862C15.4416 13.472 23.8575 18.3028 23.8575 18.3028C25.114 19.0238 25.114 20.8263 23.8575 21.5473C23.8566 21.5473 15.4416 26.3782 12.6363 27.9882Z" fill="#6FE4FF"/>
</mask>
<g mask="url(#mask0_113_3178)">
<path d="M3.16477 27.9881C1.32303 29.0451 8.01626e-07 28.1642 7.26706e-07 26.5975C6.46951e-07 24.9296 4.07645e-07 19.925 4.07645e-07 19.925C4.07645e-07 19.925 1.68339e-07 14.9204 8.85835e-08 13.2525C1.36639e-08 11.6857 1.32221 10.8049 3.16477 11.8619C6.03325 13.5078 14.6379 18.4471 14.6379 18.4471C15.782 19.1037 15.782 20.7455 14.6379 21.4021C14.6379 21.4021 6.03325 26.3422 3.16477 27.9881Z" fill="#009EE4"/>
</g>
</g>
<defs>
<clipPath id="clip0_113_3178">
<rect width="117.2" height="40" fill="white"/>
</clipPath>
</defs>
</svg>
